<svg width="400" height="582" viewBox="0 0 400 582" fill="none" xmlns="http://www.w3.org/2000/svg">
<circle cx="200" cy="273" r="197" fill="white" stroke="black" stroke-width="6"/>
<path d="M114.8 129.4H196.4C232.133 129.4 259.067 134.733 277.2 145.4C295.6 155.8 304.8 174.067 304.8 200.2C304.8 217 300.133 231 290.8 242.2C281.467 253.133 268 260.2 250.4 263.4V265.4C262.4 267.267 273.2 270.733 282.8 275.8C292.667 280.867 300.4 288.067 306 297.4C311.6 306.733 314.4 318.867 314.4 333.8C314.4 359.667 305.467 379.667 287.6 393.8C270 407.933 245.867 415 215.2 415H114.8V129.4ZM150.8 251H203.6C228.133 251 244.933 247.133 254 239.4C263.067 231.4 267.6 219.667 267.6 204.2C267.6 188.467 262 177.267 250.8 170.6C239.867 163.667 222.267 160.2 198 160.2H150.8V251ZM150.8 281V384.6H208.4C233.733 384.6 251.333 379.667 261.2 369.8C271.067 359.933 276 347 276 331C276 316.067 270.8 304.067 260.4 295C250.267 285.667 232 281 205.6 281H150.8Z" fill="black"/>
</svg>
